<?xml version="1.0" encoding="UTF-8"?>
<svg id="Layer_2" data-name="Layer 2" xmlns="http://www.w3.org/2000/svg" viewBox="0 0 503.5 522.66">
  <defs>
    <style>
      .cls-1 {
        fill: #fff;
        stroke: #fff;
        stroke-linecap: round;
        stroke-linejoin: round;
        stroke-width: 2px;
      }

      .cls-2 {
        fill: #693021;
      }
    </style>
  </defs>
  <g id="Dice">
    <path class="cls-2" d="M310.21,155.37s0,0,0,0L164.1,9.26c-.66-.66-1.31-1.32-1.96-1.98-1.3-1.32-2.65-2.7-4.03-4-.04-.04-.08-.08-.12-.12l-.1-.1c-.61-.61-1.4-.95-2.24-.95-.03,0-.05,0-.08,0s-.05,0-.08,0c-.83,0-1.62.35-2.23.95L7.16,149.16c-.66.66-1.32,1.31-1.98,1.96-1.33,1.3-2.7,2.65-4,4.03-.04.04-.08.08-.12.12l-.1.1c-1.28,1.28-1.28,3.35,0,4.63l146.11,146.11c.66.66,1.31,1.32,1.96,1.98,1.3,1.33,2.65,2.7,4.03,4,.05.04.09.09.13.13l.09.09c.64.64,1.48.96,2.31.96s1.68-.32,2.31-.96l146.11-146.11c.66-.66,1.32-1.31,1.99-1.96,1.32-1.3,2.69-2.64,4-4.02.04-.04.09-.09.13-.13l.09-.09c1.27-1.28,1.27-3.35,0-4.63ZM299.38,153.79c.23.23.46.47.69.71l-64.08-14.66c-.14-.03-.29-.07-.45-.12,0,0-.02,0-.03,0L161.56,17.52c-.34-.55-.67-1.11-1-1.67-.44-.73-.89-1.48-1.34-2.22l140.16,140.16ZM299.24,158.21h0s0,0,0,0h0ZM228.85,141.36l-73.26,39.03-73.27-39.04L155.23,20.87c.12-.2.24-.39.36-.59l71.88,118.77c.31.51.61,1.01.92,1.52.16.26.31.52.47.77ZM155.6,10.02l.79.79c-.26-.07-.53-.1-.81-.1-.26,0-.52.03-.77.09.26-.26.53-.52.79-.78ZM151.97,13.61l-73.89,122.1c-.32.53-.65,1.06-.97,1.59-.49.8-.99,1.61-1.48,2.44l-64.56,14.77s0,0,0,0L151.69,13.89c.09-.09.19-.19.28-.28ZM8.7,156.88c-.1.47-.1.96,0,1.43-.23-.25-.47-.49-.71-.73l.7-.7ZM11.79,161.58c-.24-.24-.48-.49-.72-.74.5.13,1.04.15,1.58.03l63.16-14.45c.26-.06.53-.11.79-.17.23-.05.46-.09.7-.15l73.54,39.18c.31.16.61.34.92.51.18.1.36.2.54.3v110.54c0,.5,0,1,0,1.5,0,1.01-.02,2.06,0,3.11v.15c0,.27.03.54.09.79L11.79,161.58ZM155.48,305.27l-.75-.75c.27.07.55.1.85.1.21,0,.42-.02.62-.06-.24.23-.48.46-.72.7ZM158.77,302.16c.06-.24.09-.5.09-.76v-112.55c0-.46,0-.93,0-1.39,0-.47,0-.94,0-1.41l72.98-38.89c.32-.17.64-.33.96-.5.37-.19.75-.38,1.13-.59l56.44,12.91c.88.2,1.77.41,2.65.62,1.77.42,3.59.85,5.4,1.22l.42-1.85-.34,1.87c.55.13,1.1.11,1.61-.03l-140.65,140.65c-.23.23-.47.46-.71.69ZM302.39,158.56c.14-.47.19-.97.12-1.46.22.23.44.46.66.68l-.78.78Z"/>
    <path class="cls-2" d="M502.54,364.76s0,0,0,0l-146.11-146.11c-.66-.66-1.31-1.32-1.96-1.98-1.3-1.32-2.65-2.7-4.03-4-.04-.04-.08-.08-.12-.12l-.1-.1c-.61-.61-1.4-.95-2.24-.95-.03,0-.05,0-.08,0s-.05,0-.08,0c-.83,0-1.62.35-2.23.95l-146.11,146.11c-.66.66-1.32,1.31-1.98,1.96-1.33,1.3-2.7,2.65-4,4.03-.04.04-.08.08-.12.12l-.1.1c-1.28,1.28-1.28,3.35,0,4.63l146.11,146.11c.66.66,1.31,1.32,1.96,1.98,1.3,1.33,2.65,2.7,4.03,4,.05.04.09.09.13.13l.09.09c.64.64,1.48.96,2.31.96s1.68-.32,2.31-.96l146.11-146.11c.66-.66,1.32-1.31,1.99-1.96,1.32-1.3,2.69-2.64,4-4.02.04-.04.09-.09.13-.13l.09-.09c1.27-1.28,1.27-3.35,0-4.63ZM491.71,363.18c.23.23.46.47.69.71l-64.08-14.66c-.14-.03-.29-.07-.45-.12,0,0-.02,0-.03,0l-73.95-122.2c-.34-.55-.67-1.11-1-1.67-.44-.73-.89-1.48-1.34-2.22l140.16,140.16ZM491.57,367.6h0s0,0,0,0h0ZM421.17,350.75l-73.26,39.03-73.27-39.04,72.91-120.48c.12-.2.24-.39.36-.59l71.88,118.77c.31.51.61,1.01.92,1.52.16.26.31.52.47.77ZM347.93,219.41l.79.79c-.26-.07-.53-.1-.81-.1-.26,0-.52.03-.77.09.26-.26.53-.52.79-.78ZM344.3,223l-73.89,122.1c-.32.53-.65,1.06-.97,1.59-.49.8-.99,1.61-1.48,2.44l-64.56,14.77s0,0,0,0l140.62-140.62c.09-.09.19-.19.28-.28ZM201.03,366.27c-.1.47-.1.96,0,1.43-.23-.25-.47-.49-.71-.73l.7-.7ZM204.12,370.97c-.24-.24-.48-.49-.72-.74.5.13,1.04.15,1.58.03l63.16-14.45c.26-.06.53-.11.79-.17.23-.05.46-.09.7-.15l73.54,39.18c.31.16.61.34.92.51.18.1.36.2.54.3v110.54c0,.5,0,1,0,1.5,0,1.01-.02,2.06,0,3.11v.15c0,.27.03.54.09.79l-140.61-140.61ZM347.81,514.66l-.75-.75c.27.07.55.1.85.1.21,0,.42-.02.62-.06-.24.23-.48.46-.72.7ZM351.1,511.55c.06-.24.09-.5.09-.76v-112.55c0-.46,0-.93,0-1.39,0-.47,0-.94,0-1.41l72.98-38.89c.32-.17.64-.33.96-.5.37-.19.75-.38,1.13-.59l56.44,12.91c.88.2,1.77.41,2.65.62,1.77.42,3.59.85,5.4,1.22l.42-1.85-.34,1.87c.55.13,1.1.11,1.61-.03l-140.65,140.65c-.23.23-.47.46-.71.69ZM494.72,367.95c.14-.47.19-.97.12-1.46.22.23.44.46.66.68l-.78.78Z"/>
  </g>
  <g id="Texture">
    <rect class="cls-1" x="158.6" y="176.92" width="1.56" height=".51"/>
    <polygon class="cls-1" points="236.15 136.32 235.11 137.36 235.11 136.32 236.15 136.32"/>
    <rect class="cls-1" x="95.63" y="109.26" width="1.04" height=".51"/>
    <rect class="cls-1" x="53.27" y="134.76" width="1.04" height=".51"/>
    <rect class="cls-1" x="90.95" y="139.45" width="1.04" height=".51"/>
    <rect class="cls-1" x="83.66" y="74.38" width=".51" height="1.04"/>
    <rect class="cls-1" x="214.29" y="147.25" width=".51" height="1.04"/>
    <rect class="cls-1" x="52.75" y="149.86" width="1.04" height=".51"/>
    <rect class="cls-1" x="115.93" y="154.54" width="1.04" height=".51"/>
    <rect class="cls-1" x="171.62" y="172.24" width="1.04" height=".51"/>
    <rect class="cls-1" x="92.51" y="65.02" width=".51" height="1.04"/>
    <rect class="cls-1" x="124.78" y="32.75" width=".51" height="1.04"/>
    <rect class="cls-1" x="124.78" y="30.14" width=".51" height="1.04"/>
    <rect class="cls-1" x="147.67" y="23.9" width="1.04" height=".51"/>
    <rect class="cls-1" x="223.14" y="239.9" width=".51" height="1.04"/>
    <rect class="cls-1" x="117.49" y="264.36" width=".51" height="1.04"/>
    <rect class="cls-1" x="160.69" y="265.92" width="1.04" height=".51"/>
    <rect class="cls-1" x="154.44" y="2.04" width="1.04" height=".51"/>
    <rect class="cls-1" x="158.08" y="1" width="1.04" height=".51"/>
    <rect class="cls-1" x="350.93" y="386.31" width="1.56" height=".51"/>
    <polygon class="cls-1" points="428.48 345.72 427.44 346.75 427.44 345.71 428.48 345.72"/>
    <rect class="cls-1" x="287.96" y="318.65" width="1.04" height=".51"/>
    <rect class="cls-1" x="214.58" y="344.15" width="1.04" height=".51"/>
    <rect class="cls-1" x="283.27" y="348.84" width="1.04" height=".51"/>
    <rect class="cls-1" x="275.99" y="283.78" width=".51" height="1.04"/>
    <rect class="cls-1" x="406.62" y="356.64" width=".51" height="1.04"/>
    <rect class="cls-1" x="214.06" y="359.25" width="1.04" height=".51"/>
    <rect class="cls-1" x="308.26" y="363.93" width="1.04" height=".51"/>
    <rect class="cls-1" x="363.94" y="381.63" width="1.04" height=".51"/>
    <rect class="cls-1" x="284.84" y="274.41" width=".51" height="1.04"/>
    <rect class="cls-1" x="317.11" y="242.14" width=".51" height="1.04"/>
    <rect class="cls-1" x="317.11" y="239.53" width=".51" height="1.04"/>
    <rect class="cls-1" x="340" y="233.29" width="1.04" height=".51"/>
    <rect class="cls-1" x="415.47" y="449.29" width=".51" height="1.04"/>
    <rect class="cls-1" x="309.82" y="473.75" width=".51" height="1.04"/>
    <rect class="cls-1" x="353.01" y="475.31" width="1.04" height=".51"/>
    <rect class="cls-1" x="346.77" y="211.43" width="1.04" height=".51"/>
    <rect class="cls-1" x="350.41" y="210.39" width="1.04" height=".51"/>
  </g>
</svg>